# Blender 4.5.0
# www.blender.org
mtllib whiteboard_nolegs.mtl
o Cube
v 1.000000 1.000000 -1.000000
v 1.000000 -1.000000 -1.000000
v 1.000000 1.000000 1.000000
v 1.000000 -1.000000 1.000000
v -1.000000 1.000000 -1.000000
v -1.000000 -1.000000 -1.000000
v -1.000000 1.000000 1.000000
v -1.000000 -1.000000 1.000000
vn -0.0000 1.0000 -0.0000
vn -0.0000 -0.0000 1.0000
vn -1.0000 -0.0000 -0.0000
vn -0.0000 -1.0000 -0.0000
vn 1.0000 -0.0000 -0.0000
vn -0.0000 -0.0000 -1.0000
vt 0.625000 0.500000
vt 0.875000 0.500000
vt 0.875000 0.750000
vt 0.625000 0.750000
vt 0.375000 0.750000
vt 0.625000 1.000000
vt 0.375000 1.000000
vt 0.375000 0.000000
vt 0.625000 0.000000
vt 0.625000 0.250000
vt 0.375000 0.250000
vt 0.125000 0.500000
vt 0.375000 0.500000
vt 0.125000 0.750000
s 0
usemtl Material
f 1/1/1 5/2/1 7/3/1 3/4/1
f 4/5/2 3/4/2 7/6/2 8/7/2
f 8/8/3 7/9/3 5/10/3 6/11/3
f 6/12/4 2/13/4 4/5/4 8/14/4
f 2/13/5 1/1/5 3/4/5 4/5/5
f 6/11/6 5/10/6 1/1/6 2/13/6
o whiteboard
v 91.967003 155.042999 -2.279419
v 91.967003 155.042999 2.279481
v 91.400002 198.203400 2.499976
v 0.000000 198.203400 2.499976
v 0.000000 96.603401 2.499989
v 91.400002 96.603401 2.499989
v 0.000000 96.603401 -2.500011
v 0.000000 198.203400 -2.500024
v 91.400002 198.203400 -2.500024
v 91.400002 96.603401 -2.500011
v -91.967003 155.042999 2.279382
v -91.967003 155.042999 -2.279519
v -91.400002 198.203400 2.499976
v -91.400002 96.603401 2.499989
v -91.400002 96.603401 -2.500011
v -91.400002 198.203400 -2.500024
vn -0.0000 -0.0000 1.0000
vn -0.0000 -0.0000 -1.0000
vn -0.0000 -1.0000 -0.0000
vn 1.0000 -0.0000 -0.0000
vn -0.0000 1.0000 -0.0000
vn -1.0000 -0.0000 -0.0000
vt 0.002200 0.389500
vt 0.490400 0.389500
vt 0.490400 0.932100
vt 0.002200 0.932100
vt 0.997800 0.387100
vt 0.997800 0.929700
vt 0.509600 0.929700
vt 0.509600 0.387100
vt 0.056500 0.120400
vt 0.056500 0.093700
vt 0.544700 0.093700
vt 0.544700 0.120400
vt 0.056500 0.131500
vt 0.599200 0.131500
vt 0.599200 0.158200
vt 0.056500 0.158200
vt 0.056500 0.341900
vt 0.056500 0.315200
vt 0.544800 0.315200
vt 0.544800 0.341900
s 1
usemtl whiteboard
f 11/15/7 12/16/7 13/17/7 14/18/7
f 15/19/8 16/20/8 17/21/8 18/22/8
f 13/23/9 15/24/9 18/25/9 14/26/9
f 18/27/10 17/28/10 11/29/10 14/30/10
f 11/31/11 17/32/11 16/33/11 12/34/11
f 21/15/7 22/18/7 13/17/7 12/16/7
f 15/19/8 23/22/8 24/21/8 16/20/8
f 13/23/9 22/26/9 23/25/9 15/24/9
f 23/27/12 22/30/12 21/29/12 24/28/12
f 21/31/11 12/34/11 16/33/11 24/32/11
l 9 10
l 19 20
